<svg xmlns="http://www.w3.org/2000/svg" xmlns:xlink="http://www.w3.org/1999/xlink" width="32" height="32">
    <defs>
        <linearGradient id="a">
            <stop offset="0" style="stop-color:#3584e4;stop-opacity:1"/>
            <stop offset="1" style="stop-color:#ff7800;stop-opacity:1"/>
        </linearGradient>
        <linearGradient xlink:href="#a" id="b" x1="16" x2="16" y1="0" y2="32" gradientUnits="userSpaceOnUse"/>
    </defs>
    <circle cx="16" cy="16" r="16" style="fill-opacity:1;fill:url(#b)"/>
    <path fill="#241f31" d="M21.5 15c-.277 0-.5.223-.5.5v2c0 .277.223.5.5.5h.5l-1 3h2l1-3v-2.5c0-.277-.223-.5-.5-.5ZM9 11l-1 3v2.5c0 .277.223.5.5.5h2c.277 0 .5-.223.5-.5v-2c0-.277-.223-.5-.5-.5H10l1-3zm6.848-.031c1.644-.094 3.097 1.172 3.187 2.812 0 1.403-.379 1.922-1.594 2.844-.191.145-.324.25-.375.313-.05.062-.03.03-.03.03.007.528-.473 1-1 1s-1.009-.472-1-1c0-.503.226-.945.468-1.25a3.86 3.86 0 0 1 .719-.687c.203-.16.46-.383.687-.656.094-.113.13-.309.125-.438v-.03a.989.989 0 0 0-1.062-.938c-.562.032-.97.437-.938 1h-2c-.09-1.64 1.172-2.907 2.813-3zm.187 8c.55 0 1 .449 1 1 0 .551-.45 1-1 1s-1-.45-1-1 .45-1 1-1zm0 0" style="display:inline;fill:#fff"/>
</svg>
